<svg width="17" height="24" viewBox="0 0 17 24" fill="none" xmlns="http://www.w3.org/2000/svg">
<path d="M1.46936 10.2865H15.5307C16.8375 10.2865 17.4904 8.69128 16.5687 7.76241L9.54068 0.434278C9.25351 0.144688 8.87825 0 8.50321 0C8.12844 0 7.75473 0.144688 7.46999 0.434278L0.431303 7.76348C-0.490254 8.69021 0.162294 10.2865 1.46936 10.2865ZM15.5275 13.7149H1.46936C0.16256 13.7149 -0.490307 15.3096 0.431356 16.239L7.46999 23.5672C7.75048 23.8554 8.07983 24 8.49949 24C8.87416 24 9.24957 23.8552 9.53696 23.5656L16.565 16.2375C17.4877 15.3112 16.8343 13.7149 15.5275 13.7149Z" fill="#FFD200"/>
</svg>
