<svg width="38" height="42" viewBox="0 0 38 42" fill="none" xmlns="http://www.w3.org/2000/svg">
<g filter="url(#filter0_i_630_311666)">
<path d="M16.4946 1.80176H19.6988V3.00332H16.4946V1.80176Z" fill="#27318B"/>
<path d="M26.2279 20.7313C24.3553 20.7313 24.3553 18.7332 22.4828 18.7332C20.6102 18.7332 20.6101 20.7313 18.7376 20.7313C16.865 20.7313 16.8645 18.7332 14.9914 18.7332C13.1183 18.7332 13.1193 20.7313 11.2473 20.7313C9.37361 20.7313 9.37361 18.7332 7.49992 18.7332C5.62488 18.7332 5.62488 20.7313 3.74992 20.7313C1.87496 20.7313 1.87496 18.7332 0 18.7332V41.9622H29.2237V18.8676C28.0588 19.3113 27.8087 20.7313 26.2279 20.7313Z" fill="#27318B"/>
<path d="M33.7229 20.7313C32.1397 20.7313 31.8896 19.3107 30.7224 18.8673V41.9622H37.4729V18.7332C35.5979 18.7332 35.5979 20.7313 33.7229 20.7313Z" fill="#27318B"/>
<path d="M11.2474 19.2325C11.4903 19.2325 11.57 19.1937 12.0253 18.7075C12.3725 18.2497 12.821 17.8786 13.3355 17.623C13.8501 17.3675 14.4168 17.2345 14.9914 17.2345C15.5659 17.2344 16.1327 17.3673 16.6473 17.6228C17.1619 17.8783 17.6104 18.2494 17.9577 18.7071C18.4097 19.1897 18.4934 19.2316 18.7324 19.2321C18.4674 17.6873 18.5462 16.1032 18.9631 14.5924C19.4659 12.5249 20.6205 10.6741 22.2562 9.31333C21.5067 8.47762 20.5534 7.85051 19.4892 7.49321V5.24524H14.9933V7.49321C13.6841 7.92961 12.5453 8.76688 11.7384 9.88643C10.9315 11.006 10.4973 12.351 10.4973 13.731V18.7384C10.9036 19.1698 10.9994 19.2325 11.2474 19.2325Z" fill="#27318B"/>
<path d="M32.9411 18.7067C33.3787 19.1736 33.4666 19.2325 33.7227 19.2325C33.9788 19.2325 34.0674 19.1736 34.5056 18.7064C34.6588 18.543 34.8373 18.3569 35.0444 18.1727C35.6963 14.8339 34.5341 11.7829 32.2888 11.1815C31.4814 10.9846 30.6299 11.0898 29.8948 11.4775C30.0169 10.7143 30.3879 10.0129 30.95 9.48241C31.2339 9.26741 31.5604 9.11568 31.9078 9.03742C32.2551 8.95916 32.6152 8.95618 32.9638 9.02869C33.0622 9.04379 33.1625 9.03917 33.259 9.01509C33.3555 8.991 33.4463 8.94795 33.526 8.88842C33.6057 8.8289 33.6727 8.7541 33.7232 8.6684C33.7737 8.58269 33.8066 8.48779 33.8201 8.38923C33.8335 8.29066 33.8272 8.19041 33.8015 8.09432C33.7757 7.99823 33.7311 7.90822 33.6703 7.82954C33.6094 7.75086 33.5335 7.68509 33.4469 7.63606C33.3604 7.58704 33.2649 7.55573 33.1662 7.54398C32.6134 7.44135 32.0451 7.45778 31.4993 7.59216C30.9534 7.72654 30.4424 7.97579 30.0005 8.32328C29.1876 9.05367 28.6391 10.0324 28.4404 11.1069C27.9972 10.3923 27.3058 9.86653 26.4987 9.6304C24.1003 8.9877 21.3745 11.3832 20.4105 14.9806C20.1303 16.008 20.0248 17.0752 20.0984 18.1376C20.7497 17.5447 21.6022 17.2218 22.4828 17.2344C23.0561 17.2413 23.6204 17.3773 24.1339 17.6323C24.6473 17.8874 25.0967 18.2548 25.4486 18.7074C25.9045 19.1937 25.9843 19.2325 26.2279 19.2325C26.4715 19.2325 26.5513 19.1937 27.0072 18.7074C27.3546 18.2497 27.8032 17.8786 28.3179 17.623C28.8325 17.3675 29.3993 17.2345 29.974 17.2344C30.5486 17.2343 31.1154 17.3672 31.6301 17.6226C32.1449 17.878 32.5936 18.2491 32.9411 18.7067Z" fill="#27318B"/>
<path d="M2.96829 18.7067C3.40589 19.1736 3.49371 19.2325 3.74983 19.2325C4.00595 19.2325 4.09452 19.1736 4.5328 18.7064C4.8851 18.2539 5.3348 17.8866 5.84851 17.6318C6.36221 17.377 6.92673 17.2411 7.50013 17.2344C8.01682 17.2282 8.52851 17.336 8.99878 17.5502V13.7311C9.00328 12.4141 9.3312 11.1184 9.95372 9.95778C7.476 3.62523 4.39253 -0.525054 2.23237 0.053725C-0.44549 0.771279 -0.727461 8.48281 1.50605 17.5534C2.06517 17.837 2.56223 18.229 2.96829 18.7067ZM7.12037 10.1494C7.30862 10.2131 7.46386 10.3489 7.55195 10.527C7.64005 10.7052 7.65378 10.911 7.59013 11.0992L5.85806 16.2175C5.82737 16.3117 5.77828 16.3989 5.71365 16.4741C5.64902 16.5492 5.57013 16.6108 5.48154 16.6552C5.39295 16.6997 5.29643 16.7261 5.19756 16.733C5.09869 16.7398 4.99944 16.727 4.90555 16.6953C4.81166 16.6635 4.72501 16.6135 4.6506 16.548C4.57619 16.4825 4.51551 16.403 4.47207 16.3139C4.42863 16.2248 4.40329 16.128 4.39752 16.029C4.39175 15.9301 4.40567 15.831 4.43846 15.7375L6.17053 10.6191C6.23432 10.431 6.37017 10.2758 6.54826 10.1877C6.72634 10.0996 6.93211 10.0859 7.12037 10.1494ZM2.69321 9.97284L4.42415 4.8545C4.48943 4.66833 4.6255 4.51542 4.80281 4.42895C4.98013 4.34248 5.1844 4.32942 5.37129 4.39261C5.55817 4.45581 5.7126 4.59015 5.80105 4.76649C5.8895 4.94283 5.90484 5.14694 5.84375 5.33452L4.11318 10.453C4.08249 10.5472 4.0334 10.6345 3.96877 10.7096C3.90414 10.7847 3.82525 10.8463 3.73666 10.8907C3.64807 10.9352 3.55155 10.9616 3.45268 10.9685C3.35381 10.9753 3.25456 10.9625 3.16067 10.9308C3.06678 10.899 2.98013 10.849 2.90572 10.7835C2.83131 10.7181 2.77063 10.6385 2.72719 10.5494C2.68375 10.4603 2.65841 10.3635 2.65264 10.2646C2.64687 10.1656 2.66041 10.0664 2.69321 9.97284Z" fill="#27318B"/>
</g>
<defs>
<filter id="filter0_i_630_311666" x="0" y="0" width="37.4729" height="45.9623" filterUnits="userSpaceOnUse" color-interpolation-filters="sRGB">
<feFlood flood-opacity="0" result="BackgroundImageFix"/>
<feBlend mode="normal" in="SourceGraphic" in2="BackgroundImageFix" result="shape"/>
<feColorMatrix in="SourceAlpha" type="matrix" values="0 0 0 0 0 0 0 0 0 0 0 0 0 0 0 0 0 0 127 0" result="hardAlpha"/>
<feOffset dy="4"/>
<feGaussianBlur stdDeviation="2"/>
<feComposite in2="hardAlpha" operator="arithmetic" k2="-1" k3="1"/>
<feColorMatrix type="matrix" values="0 0 0 0 0 0 0 0 0 0 0 0 0 0 0 0 0 0 0.25 0"/>
<feBlend mode="normal" in2="shape" result="effect1_innerShadow_630_311666"/>
</filter>
</defs>
</svg>
