<svg width="36" height="36" viewBox="0 0 36 36" fill="none" xmlns="http://www.w3.org/2000/svg">
<g filter="url(#filter0_i_630_311660)">
<path d="M0.56974 0C0.234104 0.0308409 -9.18425e-05 0.289201 0.000207496 0.597656V2.39997H5.99669V0.597656C5.99537 0.268134 5.72856 0.00131528 5.39904 0H0.56974ZM20.9979 0C20.6683 0.00131528 20.4015 0.268134 20.4002 0.597656V2.39997H26.3979V0.597656C26.3967 0.268134 26.1297 0.00131528 25.8002 0H20.9979ZM20.4002 3.60116V9C20.4002 9.34279 20.1406 9.59766 19.7979 9.59766H17.3979C17.0551 9.59766 16.8002 9.34279 16.8002 9C16.8002 8.01318 15.9835 7.19644 14.9967 7.19644H11.4002C10.4134 7.19644 9.59787 8.01318 9.59787 9C9.59787 9.34279 9.34299 9.59766 9.00021 9.59766H6.59904C6.25626 9.59766 5.99669 9.34279 5.99669 9V3.60116H0.000207496V34.1964C-6.91653e-05 34.2078 -6.91653e-05 34.2169 0.000207496 34.228C0.0454938 35.179 0.810592 35.9999 1.79786 35.9999H7.31037C7.26184 35.8656 7.22315 35.7261 7.20841 35.5792L6.18185 25.3159C6.17278 25.2186 6.1755 25.1206 6.19001 25.0241C5.42743 24.8179 4.79965 24.2235 4.79665 23.4034C4.79665 23.4016 4.79665 23.4011 4.79665 23.3988V20.9989C4.79605 20.0839 5.5031 19.203 6.50876 19.2024L11.4013 19.2001V17.3978C11.4014 16.926 11.5873 16.4719 11.9181 16.1356L11.9252 16.1288L13.7158 14.337C14.0415 14.0018 14.4849 13.806 14.9521 13.7921C15.719 13.7694 16.4041 14.2726 16.6654 14.8948C16.9268 15.5171 16.8072 16.3578 16.2541 16.8894L15.0014 18.1421V19.2003H19.7932C20.0061 19.1997 20.2088 19.2441 20.4002 19.3139C20.4002 17.9991 20.4307 16.7991 20.4307 16.0983C20.6585 13.3344 22.2645 11.0065 24.5252 9.65295C24.2022 9.32481 23.9949 8.88052 23.9967 8.39321V6.59927C23.9967 5.15689 25.0379 3.91088 26.399 3.59929L20.4002 3.60116ZM27.0002 4.80118C26.0134 4.80118 25.1967 5.61197 25.1967 6.59879V8.39764C25.1955 8.73129 25.4666 9.00193 25.8002 9H31.8014C32.1327 8.9988 32.4003 8.729 32.399 8.39764V6.59879C32.399 5.61197 31.5882 4.80118 30.6014 4.80118H27.0002ZM25.8002 10.2562C23.4922 11.3125 21.8454 13.5486 21.6272 16.1964H35.9721C35.7527 13.5505 34.1062 11.3137 31.8002 10.2574C30.0096 10.2574 27.5899 10.2562 25.8002 10.2562ZM14.9885 14.9918C14.8326 14.9963 14.6847 15.0617 14.576 15.1735L12.7736 16.9769C12.6633 17.0892 12.6014 17.2402 12.6014 17.3976V19.1999H13.8014V17.6449L15.4221 16.0242C15.8179 15.6437 15.5373 14.9755 14.9885 14.9918ZM21.6002 17.3976L21.599 27H35.999V17.3976H21.6002ZM24.5908 18.5882C24.9291 18.5837 25.2033 18.8617 25.1967 19.1999V19.7976C25.2148 20.6156 23.9785 20.6156 23.9967 19.7976V19.1999C23.9901 18.8663 24.2571 18.5915 24.5908 18.5882ZM6.5674 20.4C6.22802 20.4 5.99639 20.6891 5.99669 20.9976V23.3988C5.99789 23.7302 6.26768 23.9977 6.59904 23.9965H19.7979C20.1292 23.9977 20.3989 23.7302 20.4002 23.3988V20.9976C20.399 20.6663 20.1292 20.3987 19.7979 20.4H6.5674ZM24.5908 21.2906C24.9273 21.2884 25.2006 21.5612 25.1967 21.8976V25.1964C25.2148 26.0144 23.9785 26.0144 23.9967 25.1964V21.8976C23.9931 21.5658 24.259 21.2939 24.5908 21.2906ZM20.399 24.9586C20.336 24.9819 20.2733 25.0064 20.208 25.0241C20.2225 25.1207 20.2253 25.2187 20.2162 25.3159L19.1896 35.5792C19.1749 35.7261 19.1362 35.8655 19.0877 35.9999H21.3353C20.7567 35.361 20.399 34.5194 20.399 33.5975L20.399 24.9586ZM7.37599 25.1964L8.40255 35.4597C8.43333 35.7667 8.69174 36.0003 9.00021 36H17.3979C17.7063 36.0003 17.9648 35.7667 17.9955 35.4597L19.0221 25.1964H7.37599ZM21.599 28.2V33.5976C21.599 34.9168 22.6822 35.9953 24.0014 35.9953L24.6002 35.9976C25.3184 35.9976 25.9575 35.6697 26.3979 35.1643C26.8394 35.6691 27.4815 35.9952 28.2002 35.9952L29.3979 35.9997C30.1163 35.9997 30.7577 35.6715 31.199 35.1654C31.6395 35.6707 32.2792 35.9986 32.9979 35.9985L33.6014 35.9974C34.9206 35.9974 35.9991 34.9154 35.999 33.5962V28.2009L21.599 28.2Z" fill="#27318B"/>
</g>
<defs>
<filter id="filter0_i_630_311660" x="0" y="0" width="35.999" height="40" filterUnits="userSpaceOnUse" color-interpolation-filters="sRGB">
<feFlood flood-opacity="0" result="BackgroundImageFix"/>
<feBlend mode="normal" in="SourceGraphic" in2="BackgroundImageFix" result="shape"/>
<feColorMatrix in="SourceAlpha" type="matrix" values="0 0 0 0 0 0 0 0 0 0 0 0 0 0 0 0 0 0 127 0" result="hardAlpha"/>
<feOffset dy="4"/>
<feGaussianBlur stdDeviation="2"/>
<feComposite in2="hardAlpha" operator="arithmetic" k2="-1" k3="1"/>
<feColorMatrix type="matrix" values="0 0 0 0 0 0 0 0 0 0 0 0 0 0 0 0 0 0 0.25 0"/>
<feBlend mode="normal" in2="shape" result="effect1_innerShadow_630_311660"/>
</filter>
</defs>
</svg>
