<svg width="32" height="42" viewBox="0 0 32 42" fill="none" xmlns="http://www.w3.org/2000/svg">
<g filter="url(#filter0_i_630_311651)">
<path d="M26.9175 2.25C26.9158 1.6538 26.6782 1.08252 26.2566 0.66094C25.835 0.239361 25.2637 0.00174711 24.6675 0H6.45752C5.86132 0.00174711 5.29004 0.239361 4.86846 0.66094C4.44688 1.08252 4.20927 1.6538 4.20752 2.25V6.09H26.9175V2.25Z" fill="#27318B"/>
<path d="M22.7025 15.585C22.7033 15.2197 22.7907 14.8599 22.9575 14.535L25.4175 9.86997C25.6703 9.38917 26.3682 8.07681 26.6175 7.59001L3.72 7.58997L0.4275 13.8375C0.147465 14.3775 0.000873498 14.9767 0 15.585V38.25C0.000359796 39.2444 0.395564 40.1981 1.09875 40.9012C1.80193 41.6044 2.75555 41.9996 3.75 42H18.9525C19.5331 41.997 20.1051 41.86 20.6241 41.5999C21.1432 41.3397 21.5952 40.9633 21.945 40.5C22.4402 39.8548 22.7067 39.0633 22.7025 38.25V15.585ZM12.4275 18.465C14.0268 16.7932 15.2186 19.931 14.0699 21.0674C12.5154 22.5488 11.4507 19.5502 12.4275 18.465ZM8.57251 18.4275C10.21 16.852 11.3022 19.9509 10.1849 21.0749C8.59825 22.5473 7.5477 19.4999 8.57251 18.4275ZM5.4675 21.225C6.65605 19.5281 8.18441 22.2998 7.43242 23.5425C6.19291 25.2335 4.76084 22.3879 5.4675 21.225ZM16.5 28.965C16.3854 29.3034 16.2034 29.615 15.9649 29.881C15.7264 30.147 15.4365 30.3619 15.1125 30.5126C14.7886 30.6634 14.4375 30.7468 14.0804 30.7579C13.7233 30.7691 13.3677 30.7076 13.035 30.5774C12.3512 30.3305 11.6217 30.2358 10.8975 30.2999C9.99865 30.4681 9.15755 30.8703 8.19751 30.7125C7.72844 30.623 7.29252 30.4076 6.93637 30.0895C6.58021 29.7714 6.31721 29.3625 6.17548 28.9065C6.03375 28.4505 6.01863 27.9645 6.13173 27.5006C6.24483 27.0366 6.48189 26.6121 6.81758 26.2725C8.21412 25.1047 9.3107 23.2557 11.34 23.2575C13.3751 23.264 14.4466 25.0738 15.8401 26.25C16.2116 26.5828 16.4735 27.0204 16.5913 27.5051C16.7092 27.9898 16.6773 28.4988 16.5 28.965ZM16.9275 23.55C16.8199 23.7266 16.6611 23.8664 16.4723 23.9507C16.2834 24.0351 16.0734 24.0601 15.87 24.0225C14.5487 23.6062 14.994 21.3987 15.9825 20.82C17.517 20.1801 17.7676 22.6255 16.9275 23.55Z" fill="#27318B"/>
<path d="M30.6975 13.8375L28.4175 9.51001V17.6325C28.4175 17.8314 28.3385 18.0222 28.1978 18.1628C28.0572 18.3035 27.8664 18.3825 27.6675 18.3825C27.4686 18.3825 27.2778 18.3035 27.1372 18.1628C26.9965 18.0222 26.9175 17.8314 26.9175 17.6325V10.245L24.285 15.2325C24.2305 15.342 24.2022 15.4627 24.2025 15.585V38.25C24.2061 38.951 24.0662 39.6453 23.7915 40.2902C23.5168 40.9351 23.113 41.517 22.605 42H27.375C28.3694 41.9997 29.3231 41.6045 30.0262 40.9013C30.7294 40.1981 31.1246 39.2445 31.125 38.25V15.585C31.1241 14.9767 30.9775 14.3775 30.6975 13.8375Z" fill="#27318B"/>
<path d="M12.63 25.2751C10.7906 23.6452 9.17206 26.2638 7.86749 27.3525C7.7262 27.4975 7.62683 27.678 7.57993 27.8749C7.53303 28.0718 7.54035 28.2778 7.60112 28.4708C7.66189 28.6639 7.77384 28.8369 7.92507 28.9715C8.07629 29.106 8.26115 29.1971 8.45999 29.235C8.76594 29.2605 9.07393 29.2274 9.36749 29.1376C10.6271 28.696 11.9965 28.6776 13.2675 29.0852C13.5552 29.1829 13.8562 29.2359 14.16 29.2426C14.3752 29.2301 14.5808 29.1491 14.7468 29.0115C14.9128 28.8738 15.0304 28.6868 15.0825 28.4776C15.1664 28.282 15.1848 28.0645 15.1347 27.8576C15.0847 27.6508 14.969 27.4657 14.805 27.3301C14.085 26.6401 13.3575 25.9576 12.63 25.2751Z" fill="#27318B"/>
</g>
<defs>
<filter id="filter0_i_630_311651" x="0" y="0" width="31.125" height="46" filterUnits="userSpaceOnUse" color-interpolation-filters="sRGB">
<feFlood flood-opacity="0" result="BackgroundImageFix"/>
<feBlend mode="normal" in="SourceGraphic" in2="BackgroundImageFix" result="shape"/>
<feColorMatrix in="SourceAlpha" type="matrix" values="0 0 0 0 0 0 0 0 0 0 0 0 0 0 0 0 0 0 127 0" result="hardAlpha"/>
<feOffset dy="4"/>
<feGaussianBlur stdDeviation="2"/>
<feComposite in2="hardAlpha" operator="arithmetic" k2="-1" k3="1"/>
<feColorMatrix type="matrix" values="0 0 0 0 0 0 0 0 0 0 0 0 0 0 0 0 0 0 0.25 0"/>
<feBlend mode="normal" in2="shape" result="effect1_innerShadow_630_311651"/>
</filter>
</defs>
</svg>
