<svg width="62" height="69" viewBox="0 0 62 69" fill="none" xmlns="http://www.w3.org/2000/svg">
<g filter="url(#filter0_i_629_66200)">
<path d="M27.1128 2.93018H32.3238V4.88431H27.1128V2.93018Z" fill="#DCD2C6"/>
<path d="M42.9421 33.7156C39.8967 33.7156 39.8967 30.466 36.8513 30.466C33.8059 30.466 33.8058 33.7156 30.7604 33.7156C27.715 33.7156 27.7142 30.466 24.6679 30.466C21.6217 30.466 21.6234 33.7156 18.5788 33.7156C15.5316 33.7156 15.5316 30.466 12.4844 30.466C9.43499 30.466 9.43499 33.7156 6.3857 33.7156C3.3364 33.7156 3.3364 30.466 0.287109 30.466V68.244H47.8143V30.6846C45.9198 31.4062 45.513 33.7156 42.9421 33.7156Z" fill="#DCD2C6"/>
<path d="M55.1315 33.7156C52.5566 33.7156 52.1498 31.4052 50.2516 30.6841V68.244H61.2302V30.466C58.1808 30.466 58.1808 33.7156 55.1315 33.7156Z" fill="#DCD2C6"/>
<path d="M18.5789 31.2782C18.974 31.2782 19.1036 31.2151 19.8439 30.4243C20.4087 29.6799 21.138 29.0763 21.9749 28.6607C22.8117 28.2451 23.7334 28.0288 24.6678 28.0287C25.6022 28.0287 26.5239 28.2449 27.3608 28.6603C28.1977 29.0758 28.9271 29.6794 29.492 30.4237C30.2272 31.2086 30.3632 31.2768 30.7519 31.2775C30.3209 28.7653 30.449 26.189 31.1271 23.7319C31.9449 20.3696 33.8226 17.3595 36.4827 15.1464C35.2639 13.7873 33.7134 12.7674 31.9827 12.1863V8.5304H24.6709V12.1863C22.5417 12.8961 20.6898 14.2577 19.3774 16.0785C18.0651 17.8992 17.359 20.0867 17.359 22.3311V30.4747C18.0198 31.1762 18.1755 31.2782 18.5789 31.2782Z" fill="#DCD2C6"/>
<path d="M53.86 30.4231C54.5716 31.1825 54.7145 31.2782 55.131 31.2782C55.5475 31.2782 55.6916 31.1825 56.4044 30.4226C56.6535 30.157 56.9437 29.8543 57.2806 29.5547C58.3408 24.1248 56.4507 19.1628 52.799 18.1848C51.486 17.8645 50.1011 18.0357 48.9057 18.6661C49.1043 17.4249 49.7076 16.2842 50.6218 15.4215C51.0834 15.0718 51.6145 14.8251 52.1794 14.6978C52.7443 14.5705 53.3299 14.5657 53.8969 14.6836C54.0568 14.7082 54.22 14.7006 54.3769 14.6615C54.5339 14.6223 54.6815 14.5523 54.8111 14.4555C54.9407 14.3587 55.0498 14.237 55.1319 14.0976C55.214 13.9583 55.2676 13.8039 55.2894 13.6436C55.3112 13.4833 55.3009 13.3203 55.2591 13.164C55.2173 13.0077 55.1448 12.8613 55.0458 12.7334C54.9468 12.6054 54.8233 12.4985 54.6826 12.4187C54.5418 12.339 54.3866 12.2881 54.2259 12.269C53.327 12.1021 52.4028 12.1288 51.515 12.3473C50.6272 12.5659 49.7962 12.9712 49.0775 13.5364C47.7555 14.7242 46.8635 16.3159 46.5403 18.0635C45.8195 16.9013 44.695 16.0462 43.3825 15.6622C39.4819 14.6169 35.049 18.5128 33.4812 24.3633C33.0254 26.0342 32.8538 27.7698 32.9736 29.4976C34.0328 28.5333 35.4191 28.0082 36.8513 28.0287C37.7836 28.04 38.7014 28.2612 39.5365 28.6759C40.3716 29.0907 41.1024 29.6883 41.6747 30.4243C42.4161 31.2151 42.5459 31.2782 42.9421 31.2782C43.3383 31.2782 43.4681 31.2151 44.2095 30.4243C44.7745 29.68 45.504 29.0764 46.341 28.6608C47.178 28.2452 48.0999 28.0289 49.0344 28.0288C49.9689 28.0286 50.8907 28.2447 51.7279 28.6601C52.565 29.0755 53.2948 29.6789 53.86 30.4231Z" fill="#DCD2C6"/>
<path d="M5.11434 30.4231C5.82603 31.1824 5.96885 31.2782 6.38539 31.2782C6.80192 31.2782 6.94596 31.1824 7.65875 30.4226C8.23169 29.6868 8.96305 29.0894 9.79851 28.675C10.634 28.2606 11.552 28.0397 12.4846 28.0287C13.3249 28.0187 14.1571 28.194 14.9219 28.5422V22.3312C14.9292 20.1893 15.4625 18.0821 16.4749 16.1946C12.4453 5.8958 7.43062 -0.853907 3.91751 0.0873742C-0.437564 1.25435 -0.896141 13.7958 2.73627 28.5475C3.64557 29.0087 4.45397 29.6463 5.11434 30.4231ZM11.867 16.5062C12.1731 16.6097 12.4256 16.8306 12.5689 17.1203C12.7121 17.41 12.7345 17.7448 12.6309 18.0509L9.81404 26.3749C9.76413 26.5281 9.6843 26.67 9.57919 26.7922C9.47408 26.9144 9.34578 27.0145 9.2017 27.0868C9.05763 27.159 8.90065 27.202 8.73985 27.2132C8.57906 27.2244 8.41765 27.2035 8.26496 27.1519C8.11227 27.1003 7.97133 27.0189 7.85032 26.9124C7.72931 26.8059 7.63062 26.6765 7.55997 26.5316C7.48932 26.3868 7.44811 26.2293 7.43873 26.0684C7.42935 25.9075 7.45198 25.7463 7.50532 25.5942L10.3222 17.2701C10.426 16.9641 10.6469 16.7118 10.9365 16.5685C11.2262 16.4253 11.5608 16.4029 11.867 16.5062ZM4.66697 16.2191L7.48204 7.89499C7.58821 7.59222 7.8095 7.34354 8.09787 7.20291C8.38625 7.06227 8.71846 7.04104 9.02239 7.14381C9.32633 7.24658 9.57747 7.46507 9.72133 7.75185C9.86518 8.03864 9.89013 8.37058 9.79077 8.67565L6.97631 17C6.92639 17.1532 6.84656 17.2951 6.74146 17.4173C6.63635 17.5395 6.50804 17.6396 6.36397 17.7119C6.21989 17.7841 6.06291 17.8271 5.90212 17.8383C5.74132 17.8495 5.57991 17.8286 5.42722 17.777C5.27453 17.7254 5.1336 17.644 5.01259 17.5375C4.89157 17.431 4.79289 17.3016 4.72224 17.1567C4.65159 17.0119 4.61038 16.8544 4.601 16.6935C4.59161 16.5326 4.61364 16.3712 4.66697 16.2191Z" fill="#DCD2C6"/>
</g>
<defs>
<filter id="filter0_i_629_66200" x="0.287109" y="0" width="60.9431" height="72.244" filterUnits="userSpaceOnUse" color-interpolation-filters="sRGB">
<feFlood flood-opacity="0" result="BackgroundImageFix"/>
<feBlend mode="normal" in="SourceGraphic" in2="BackgroundImageFix" result="shape"/>
<feColorMatrix in="SourceAlpha" type="matrix" values="0 0 0 0 0 0 0 0 0 0 0 0 0 0 0 0 0 0 127 0" result="hardAlpha"/>
<feOffset dy="4"/>
<feGaussianBlur stdDeviation="2"/>
<feComposite in2="hardAlpha" operator="arithmetic" k2="-1" k3="1"/>
<feColorMatrix type="matrix" values="0 0 0 0 0 0 0 0 0 0 0 0 0 0 0 0 0 0 0.25 0"/>
<feBlend mode="normal" in2="shape" result="effect1_innerShadow_629_66200"/>
</filter>
</defs>
</svg>
