<svg width="52" height="69" viewBox="0 0 52 69" fill="none" xmlns="http://www.w3.org/2000/svg">
<g filter="url(#filter0_i_629_66193)">
<path d="M44.538 3.91314C44.5352 2.94094 44.1477 2.00937 43.4603 1.32191C42.7728 0.634459 41.8412 0.24699 40.869 0.244141H11.1746C10.2024 0.24699 9.27078 0.634459 8.58333 1.32191C7.89587 2.00937 7.5084 2.94094 7.50555 3.91314V10.1749H44.538V3.91314Z" fill="#DCD2C6"/>
<path d="M37.6648 25.6581C37.666 25.0625 37.8085 24.4757 38.0806 23.9459L42.092 16.3388C42.5042 15.5548 43.6423 13.4148 44.0488 12.621L6.71062 12.6209L1.34164 22.8085C0.884997 23.689 0.645956 24.6662 0.644531 25.6581V62.6172C0.645118 64.2388 1.28956 65.7938 2.43622 66.9405C3.58288 68.0871 5.13792 68.7316 6.75954 68.7322H31.5498C32.4965 68.7272 33.4293 68.5039 34.2756 68.0797C35.122 67.6555 35.8591 67.0417 36.4295 66.2862C37.237 65.2341 37.6716 63.9434 37.6648 62.6172V25.6581ZM20.9097 30.3544C23.5176 27.6283 25.461 32.7449 23.5879 34.5981C21.0529 37.0138 19.3168 32.1241 20.9097 30.3544ZM14.6234 30.2932C17.2937 27.7242 19.0746 32.7774 17.2528 34.6103C14.6654 37.0113 12.9523 32.0419 14.6234 30.2932ZM9.56021 34.855C11.4983 32.0881 13.9906 36.6077 12.7643 38.6341C10.7431 41.3915 8.40787 36.7514 9.56021 34.855ZM27.5506 47.4764C27.3637 48.0282 27.0669 48.5364 26.678 48.9702C26.2891 49.4039 25.8162 49.7543 25.288 50.0001C24.7599 50.2459 24.1873 50.382 23.605 50.4001C23.0227 50.4183 22.4428 50.3181 21.9003 50.1057C20.7852 49.703 19.5957 49.5486 18.4147 49.6533C16.949 49.9276 15.5774 50.5833 14.0119 50.326C13.247 50.18 12.5362 49.8289 11.9554 49.3102C11.3747 48.7915 10.9458 48.1246 10.7147 47.381C10.4836 46.6374 10.4589 45.845 10.6433 45.0884C10.8278 44.3319 11.2143 43.6397 11.7617 43.0858C14.039 41.1816 15.8272 38.1665 19.1362 38.1694C22.4548 38.18 24.2021 41.1313 26.4744 43.0492C27.0802 43.5919 27.5074 44.3054 27.6995 45.0958C27.8916 45.8861 27.8397 46.7162 27.5506 47.4764ZM28.2477 38.6463C28.0721 38.9344 27.8133 39.1623 27.5053 39.2999C27.1974 39.4375 26.8549 39.4782 26.5232 39.4168C24.3686 38.7381 25.0948 35.1383 26.7066 34.1947C29.2089 33.1513 29.6175 37.1388 28.2477 38.6463Z" fill="#DCD2C6"/>
<path d="M50.7019 22.8085L46.984 15.7518V28.9969C46.984 29.3213 46.8551 29.6323 46.6258 29.8617C46.3964 30.091 46.0854 30.2199 45.761 30.2199C45.4366 30.2199 45.1256 30.091 44.8962 29.8617C44.6668 29.6323 44.538 29.3213 44.538 28.9969V16.9503L40.2453 25.0833C40.1564 25.2618 40.1103 25.4587 40.1107 25.6581V62.6172C40.1166 63.7603 39.8885 64.8924 39.4405 65.9441C38.9926 66.9957 38.3341 67.9445 37.5057 68.7322H45.284C46.9056 68.7316 48.4607 68.0872 49.6073 66.9405C50.754 65.7938 51.3984 64.2388 51.399 62.6172V25.6581C51.3976 24.6662 51.1586 23.6891 50.7019 22.8085Z" fill="#DCD2C6"/>
<path d="M21.2399 41.4593C18.2403 38.8015 15.6011 43.0716 13.4738 44.8469C13.2434 45.0833 13.0814 45.3777 13.0049 45.6988C12.9284 46.0199 12.9403 46.3557 13.0394 46.6705C13.1385 46.9854 13.3211 47.2675 13.5677 47.4869C13.8143 47.7063 14.1157 47.8548 14.44 47.9166C14.9389 47.9582 15.4411 47.9042 15.9198 47.7577C17.9739 47.0377 20.2068 47.0077 22.2794 47.6723C22.7486 47.8316 23.2394 47.9181 23.7348 47.9289C24.0858 47.9086 24.4211 47.7765 24.6917 47.5521C24.9623 47.3277 25.1541 47.0226 25.2391 46.6815C25.3759 46.3626 25.4058 46.0079 25.3243 45.6706C25.2427 45.3332 25.054 45.0314 24.7866 44.8103C23.6125 43.6851 22.4262 42.5722 21.2399 41.4593Z" fill="#DCD2C6"/>
</g>
<defs>
<filter id="filter0_i_629_66193" x="0.644531" y="0.244141" width="50.7545" height="72.4881" filterUnits="userSpaceOnUse" color-interpolation-filters="sRGB">
<feFlood flood-opacity="0" result="BackgroundImageFix"/>
<feBlend mode="normal" in="SourceGraphic" in2="BackgroundImageFix" result="shape"/>
<feColorMatrix in="SourceAlpha" type="matrix" values="0 0 0 0 0 0 0 0 0 0 0 0 0 0 0 0 0 0 127 0" result="hardAlpha"/>
<feOffset dy="4"/>
<feGaussianBlur stdDeviation="2"/>
<feComposite in2="hardAlpha" operator="arithmetic" k2="-1" k3="1"/>
<feColorMatrix type="matrix" values="0 0 0 0 0 0 0 0 0 0 0 0 0 0 0 0 0 0 0.25 0"/>
<feBlend mode="normal" in2="shape" result="effect1_innerShadow_629_66193"/>
</filter>
</defs>
</svg>
