<?xml version="1.0" standalone="no"?>
<!DOCTYPE svg PUBLIC "-//W3C//DTD SVG 20010904//EN"
 "http://www.w3.org/TR/2001/REC-SVG-20010904/DTD/svg10.dtd">
<svg version="1.0" xmlns="http://www.w3.org/2000/svg"
 width="200.000000pt" height="200.000000pt" viewBox="0 0 200.000000 200.000000"
 preserveAspectRatio="xMidYMid meet">
<metadata>
Created by potrace 1.14, written by Peter Selinger 2001-2017
</metadata>
<g transform="translate(0.000000,200.000000) scale(0.100000,-0.100000)"
fill="#000000" stroke="none">
<path d="M687 1913 c-2 -5 -3 -94 -2 -199 1 -188 2 -192 28 -237 45 -77 135
-116 217 -94 124 32 189 172 131 284 -23 46 -56 74 -146 123 -33 19 -87 50
-120 70 -86 53 -103 61 -108 53z"/>
<path d="M1270 1579 c-85 -50 -166 -100 -178 -112 -39 -36 -62 -92 -62 -147 0
-167 195 -260 319 -153 72 61 75 72 77 301 2 111 2 202 1 201 -1 0 -72 -41
-157 -90z"/>
<path d="M1500 1431 l0 -119 38 -30 37 -31 -67 -68 c-38 -38 -68 -72 -68 -75
0 -4 18 -33 40 -64 56 -80 82 -154 86 -249 4 -95 -7 -148 -46 -230 -93 -195
-326 -304 -533 -250 -71 18 -141 54 -187 95 l-35 31 35 -17 c50 -24 129 -21
180 7 46 26 99 99 101 138 4 74 -20 149 -59 184 -19 16 -297 180 -323 189 -14
5 -15 -16 -13 -191 1 -177 4 -201 22 -237 11 -22 28 -46 36 -53 9 -8 16 -17
16 -21 0 -5 -29 -37 -65 -72 -36 -36 -65 -69 -65 -75 0 -11 83 -76 140 -111
88 -52 221 -85 337 -84 308 4 578 221 647 520 8 34 14 105 14 158 0 155 -45
286 -140 411 l-50 65 71 72 72 73 -41 37 c-44 39 -157 116 -172 116 -4 0 -8
-54 -8 -119z"/>
<path d="M575 1479 c-138 -102 -257 -266 -309 -425 -35 -108 -41 -152 -40
-299 2 -200 52 -353 169 -510 81 -110 73 -108 155 -25 38 39 70 74 70 77 0 3
-8 13 -18 22 -49 45 -116 163 -145 256 -41 132 -39 267 5 405 28 88 48 126
109 205 l51 67 0 124 c1 69 -1 126 -3 129 -2 2 -22 -10 -44 -26z"/>
<path d="M686 1238 c2 -206 7 -233 52 -281 146 -154 396 -11 336 192 -17 59
-52 92 -164 159 -140 82 -211 122 -219 122 -4 0 -6 -87 -5 -192z"/>
<path d="M1335 1131 c-44 -26 -113 -67 -152 -90 -40 -23 -84 -52 -98 -65 -74
-69 -72 -203 3 -281 105 -106 291 -58 330 85 10 38 13 400 3 400 -3 0 -42 -22
-86 -49z"/>
</g>
</svg>
