<svg width="114" height="134" viewBox="0 0 114 134" fill="none" xmlns="http://www.w3.org/2000/svg">
<path d="M29.3656 30.4191C25.6238 32.8438 22.0916 35.6726 18.8138 38.9504C-6.27125 64.0355 -6.27125 104.701 18.8138 129.786L29.4854 119.1C29.4854 119.1 29.4854 119.1 29.4704 119.1C10.3274 99.9567 10.2825 68.9447 29.3507 49.7418V30.4042L29.3656 30.4191Z" fill="#27318B"/>
<path d="M109.65 38.9508C104.785 34.1014 99.3522 30.18 93.5599 27.2015V42.977C93.6048 43.6355 93.6198 44.309 93.6048 44.9526C95.4757 46.3595 97.2718 47.9161 98.993 49.6224L109.665 38.9508C109.665 38.9508 109.665 38.9508 109.665 38.9358L109.65 38.9508Z" fill="#27318B"/>
<path d="M88.1866 78.4486V54.4562L66.9482 66.7143C64.3888 68.226 62.473 69.8574 61.0212 72.3719C56.995 79.3466 59.3748 88.282 66.3645 92.3082C73.3541 96.3344 82.2746 93.9396 86.3008 86.9649C87.8424 84.2708 88.1567 82.1006 88.2016 78.4336L88.1866 78.4486Z" fill="#BC9B6A"/>
<path d="M34.0055 95.2121V71.2197C34.0055 71.2197 53.0587 82.1907 55.2439 83.4779C57.4292 84.7501 59.7341 86.621 61.1859 89.1355C65.2271 96.1102 62.8323 105.046 55.8426 109.072C48.8679 113.113 39.9475 110.718 35.9063 103.728C34.3647 101.049 34.1552 98.445 34.0055 95.1972V95.2121Z" fill="#BC9B6A"/>
<path d="M88.1866 43.0962V19.0889L66.9482 31.347C64.5684 32.7539 62.473 34.5051 61.0212 37.0196C56.995 44.0092 59.3748 52.9297 66.3645 56.9559C73.3541 60.982 82.2746 58.5873 86.3008 51.6126C87.8424 48.9334 88.1567 46.2244 88.2016 43.0813L88.1866 43.0962Z" fill="#BC9B6A"/>
<path d="M34.0055 59.8594V35.8669L55.2439 48.1251C57.7884 49.7116 59.7341 51.2832 61.1859 53.7976C65.2271 60.7724 62.8323 69.7078 55.8426 73.7339C48.8679 77.7601 39.9475 75.3803 35.9063 68.4056C34.3647 65.7265 34.0354 63.1821 34.0055 59.8743V59.8594Z" fill="#BC9B6A"/>
<path d="M34.0054 24.4924V0.5L55.2439 12.7581C57.6686 14.165 59.734 15.9162 61.1858 18.4307C65.227 25.4054 62.8322 34.3258 55.8426 38.367C48.8678 42.3932 39.9474 40.0134 35.9063 33.0237C34.3646 30.3446 33.9755 28.0546 34.0054 24.5074V24.4924Z" fill="#BC9B6A"/>
<path d="M98.9779 119.115C118.151 99.9267 118.166 68.8399 98.9779 49.637L88.5608 60.0691C101.971 73.5096 101.971 95.257 88.5608 108.697C75.1352 122.108 53.3579 122.123 39.9324 108.697L29.5002 119.115C48.6882 138.303 79.79 138.288 98.9779 119.115Z" fill="#FFD200"/>
</svg>
