<svg width="330" height="58" viewBox="0 0 330 58" fill="none" xmlns="http://www.w3.org/2000/svg">
<path d="M105.075 55.5881H330V35.0657H110.016C110.029 35.5226 110.048 35.9795 110.048 36.4364C110.048 43.4123 108.234 49.9442 105.075 55.5881Z" fill="#27318B"/>
<path d="M32.6664 35.0657H0V55.5881H37.7612C34.5049 49.9442 32.634 43.4123 32.634 36.4364C32.634 35.9795 32.6534 35.5226 32.6729 35.0657H32.6664Z" fill="#27318B"/>
<path d="M330 33.424V12.9016H102.612C106.862 18.6916 109.552 25.749 110.059 33.424H330Z" fill="#FFD200"/>
<path d="M0 12.9016V33.424H32.576C33.0914 25.749 35.8555 18.6916 40.2239 12.9016H0Z" fill="#FFD200"/>
<path d="M59.0159 12.9809C57.3925 14.0328 55.86 15.2602 54.4378 16.6823C43.5543 27.5658 43.5543 45.2093 54.4378 56.0928L59.0679 51.4563C59.0679 51.4563 59.0679 51.4563 59.0614 51.4563C50.7559 43.1508 50.7364 29.6958 59.0094 21.3643V12.9744L59.0159 12.9809Z" fill="#27318B"/>
<path d="M93.8484 16.6826C91.7379 14.5786 89.3807 12.8772 86.8676 11.585V18.4294C86.8871 18.7151 86.8936 19.0073 86.8871 19.2865C87.6988 19.897 88.4781 20.5723 89.2248 21.3126L93.8549 16.6826C93.8549 16.6826 93.8549 16.6826 93.8549 16.6761L93.8484 16.6826Z" fill="#27318B"/>
<path d="M84.5364 33.8191V23.4097L75.3218 28.728C74.2113 29.3839 73.3801 30.0917 72.7502 31.1827C71.0034 34.2088 72.0359 38.0855 75.0685 39.8324C78.1011 41.5792 81.9714 40.5402 83.7182 37.5141C84.387 36.3452 84.5234 35.4036 84.5429 33.8127L84.5364 33.8191Z" fill="#BC9B6A"/>
<path d="M61.029 41.0923V30.6829C61.029 30.6829 69.2955 35.4428 70.2436 36.0012C71.1917 36.5532 72.1917 37.3649 72.8216 38.4559C74.575 41.482 73.536 45.3587 70.5034 47.1056C67.4773 48.8589 63.607 47.8199 61.8537 44.7873C61.1848 43.6249 61.0939 42.495 61.029 41.0858V41.0923Z" fill="#BC9B6A"/>
<path d="M84.5364 18.4812V8.06519L75.3218 13.3836C74.2892 13.994 73.3801 14.7537 72.7502 15.8447C71.0034 18.8773 72.0359 22.7476 75.0685 24.4944C78.1011 26.2412 81.9714 25.2022 83.7182 22.1761C84.387 21.0137 84.5234 19.8384 84.5429 18.4747L84.5364 18.4812Z" fill="#BC9B6A"/>
<path d="M61.029 25.754V15.3445L70.2436 20.6629C71.3476 21.3512 72.1917 22.033 72.8216 23.124C74.575 26.1501 73.536 30.0268 70.5034 31.7737C67.4773 33.5205 63.607 32.488 61.8537 29.4619C61.1848 28.2995 61.042 27.1956 61.029 25.7605V25.754Z" fill="#BC9B6A"/>
<path d="M61.029 10.4095V0L70.2436 5.31838C71.2956 5.92879 72.1918 6.68856 72.8217 7.77951C74.575 10.8056 73.536 14.6759 70.5034 16.4292C67.4773 18.176 63.607 17.1435 61.8537 14.1109C61.1849 12.9485 61.016 11.955 61.029 10.416V10.4095Z" fill="#BC9B6A"/>
<path d="M89.2183 51.4628C97.5368 43.1378 97.5433 29.6503 89.2183 21.3188L84.6987 25.845C90.5171 31.6764 90.5171 41.1118 84.6987 46.9432C78.8738 52.7616 69.4254 52.7681 63.6005 46.9432L59.0743 51.4628C67.3993 59.7878 80.8933 59.7813 89.2183 51.4628Z" fill="#FFD200"/>
<path d="M124.875 44.2548C124.875 46.4562 123.33 48.1316 121.33 48.1316C119.167 48.1316 117.947 46.4887 117.947 44.3847C117.947 42.2807 119.466 40.5144 121.473 40.5144C123.746 40.5144 124.882 42.0664 124.882 44.2548H124.875ZM121.414 47.0666C122.583 47.0666 123.356 45.8977 123.356 44.3197C123.356 42.7418 122.583 41.5729 121.414 41.5729C120.245 41.5729 119.466 42.7418 119.466 44.3197C119.466 45.8977 120.252 47.0666 121.414 47.0666Z" fill="white"/>
<path d="M130.096 47.9953L128.265 45.3913H127.707V47.0472L127.83 47.9953H126.278V41.7678L126.122 40.6313H128.408C129.733 40.6313 131.012 41.3586 131.012 42.9236C131.012 43.7419 130.447 44.651 129.622 45.0731L131.908 47.9953H130.109H130.096ZM128.2 44.3458C128.895 44.3458 129.512 43.7094 129.512 42.9236C129.512 42.0859 128.895 41.6444 128.2 41.6444H127.707V44.3458H128.2Z" fill="white"/>
<path d="M134.389 47.0472L134.512 47.9953H132.96V41.7678L132.804 40.6313H134.389V47.0472Z" fill="white"/>
<path d="M136.571 41.7678L136.415 40.6313H140.636V41.7223H137.999V43.6704H140.324L140.045 44.7614H137.993V46.8978H140.772L140.499 47.9888H136.564V41.7613L136.571 41.7678Z" fill="white"/>
<path d="M148.344 47.0473L148.422 47.9954H147.506L143.792 43.8199L143.363 43.1251V47.0473L143.48 47.9954H142.09V41.7679L141.935 40.6315H143.038L146.655 44.8849L147.078 45.5667V41.7614L146.922 40.625H148.344V47.0408V47.0473Z" fill="white"/>
<path d="M149.298 40.6313H155.429V41.7418H153.045V47.0472L153.169 47.9953H151.617V41.7418H149.298V40.6313Z" fill="white"/>
<path d="M161.383 40.6313C162.708 40.6313 163.987 41.3586 163.987 42.9236C163.987 44.2354 162.727 45.3913 161.013 45.3913H160.695V47.0472L160.812 47.9953H159.26V41.7678L159.104 40.6313H161.39H161.383ZM161.182 44.2938C161.877 44.2938 162.494 43.7094 162.494 42.9236C162.494 42.0859 161.877 41.7028 161.182 41.7028H160.688V44.2938H161.182Z" fill="white"/>
<path d="M169.208 47.9953L167.377 45.3913H166.819V47.0472L166.942 47.9953H165.39V41.7678L165.234 40.6313H167.513C168.838 40.6313 170.117 41.3586 170.117 42.9236C170.117 43.7419 169.552 44.651 168.728 45.0731L171.014 47.9953H169.215H169.208ZM167.312 44.3458C168.007 44.3458 168.624 43.7094 168.624 42.9236C168.624 42.0859 168.007 41.6444 167.312 41.6444H166.819V44.3458H167.312Z" fill="white"/>
<path d="M178.254 44.2548C178.254 46.4562 176.709 48.1316 174.702 48.1316C172.54 48.1316 171.319 46.4887 171.319 44.3847C171.319 42.2807 172.838 40.5144 174.845 40.5144C177.118 40.5144 178.254 42.0664 178.254 44.2548ZM174.793 47.0666C175.962 47.0666 176.735 45.8977 176.735 44.3197C176.735 42.7418 175.962 41.5729 174.793 41.5729C173.624 41.5729 172.845 42.7418 172.845 44.3197C172.845 45.8977 173.624 47.0666 174.793 47.0666Z" fill="white"/>
<path d="M182.501 48.1383L181.501 47.9175L179.306 41.9952L178.592 40.625H180.358L181.968 45.2421L182.137 46.1122L182.365 45.2421L184.072 40.625H185.449L182.507 48.1318L182.501 48.1383Z" fill="white"/>
<path d="M187.956 47.0472L188.079 47.9953H186.527V41.7678L186.371 40.6313H187.962V47.0472H187.956Z" fill="white"/>
<path d="M189.664 46.1512C189.664 46.1512 190.566 47.0668 191.722 47.0668C192.326 47.0668 192.761 46.6512 192.761 46.1512C192.761 44.8914 189.631 44.8264 189.631 42.664C189.631 41.4757 190.495 40.4951 191.871 40.4951C192.819 40.4951 193.534 40.8068 193.917 41.0471L193.644 42.151C193.644 42.151 192.917 41.5471 191.832 41.5471C191.423 41.5471 190.943 41.8783 190.943 42.3848C190.943 43.6641 194.105 43.6511 194.105 45.9109C194.105 47.1707 193.216 48.1383 191.8 48.1383C190.384 48.1383 189.553 47.385 189.553 47.385L189.664 46.1512Z" fill="white"/>
<path d="M196.982 47.0472L197.105 47.9953H195.553V41.7678L195.398 40.6313H196.982V47.0472Z" fill="white"/>
<path d="M205.372 44.2548C205.372 46.4562 203.833 48.1316 201.826 48.1316C199.664 48.1316 198.443 46.4887 198.443 44.3847C198.443 42.2807 199.963 40.5144 201.969 40.5144C204.242 40.5144 205.372 42.0664 205.372 44.2548ZM201.911 47.0666C203.08 47.0666 203.852 45.8977 203.852 44.3197C203.852 42.7418 203.08 41.5729 201.911 41.5729C200.742 41.5729 199.963 42.7418 199.963 44.3197C199.963 45.8977 200.748 47.0666 201.911 47.0666Z" fill="white"/>
<path d="M212.924 47.0473L213.002 47.9954H212.086L208.372 43.8199L207.943 43.1251V47.0473L208.06 47.9954H206.671V41.7679L206.515 40.6315H207.619L211.236 44.8849L211.658 45.5667V41.7614L211.502 40.625H212.924V47.0408V47.0473Z" fill="white"/>
<path d="M223.808 48.2357C223.301 48.0279 222.762 47.6967 222.145 47.2357C221.606 47.8071 220.788 48.1383 219.762 48.1383C218.243 48.1383 217.236 47.1902 217.236 46.0668C217.236 45.1512 217.807 44.4109 218.723 43.6511C218.152 42.8134 217.807 42.0407 217.807 41.5017C217.807 40.3913 218.808 39.5601 220.1 39.5601C221.321 39.5601 222.074 40.2744 222.074 41.1056C222.074 42.0082 221.217 42.8329 220.191 43.6641C220.697 44.3005 221.327 44.9758 221.963 45.5603C221.963 45.5603 222.347 44.7745 222.347 43.5083C222.347 43.2095 222.334 42.8719 222.301 42.4628H224.977L224.756 43.4433H223.464C223.464 44.7096 223.132 45.7811 222.827 46.2876C223.613 46.8915 224.314 47.2552 224.775 47.3915L223.795 48.2422L223.808 48.2357ZM221.327 46.5408C220.613 45.9109 219.924 45.1642 219.334 44.4369C218.905 44.8655 218.639 45.3395 218.639 45.9239C218.639 46.5084 219.035 47.1123 220.074 47.1123C220.847 47.1123 221.334 46.5408 221.334 46.5408H221.327ZM219.671 42.8784C220.288 42.3719 220.782 41.8848 220.782 41.3913C220.782 41.0017 220.528 40.4952 219.976 40.4952C219.593 40.4952 219.048 40.7679 219.048 41.3588C219.048 41.7549 219.301 42.2939 219.665 42.8784H219.671Z" fill="white"/>
<path d="M227.866 40.6313H233.996V41.7418H231.613V47.0472L231.737 47.9953H230.185V41.7418H227.866V40.6313Z" fill="white"/>
<path d="M238.886 47.9953L237.055 45.3913H236.49V47.0472L236.613 47.9953H235.061V41.7678L234.906 40.6313H237.185C238.51 40.6313 239.789 41.3586 239.789 42.9236C239.789 43.7419 239.224 44.651 238.399 45.0731L240.678 47.9953H238.88H238.886ZM236.99 44.3458C237.685 44.3458 238.302 43.7094 238.302 42.9236C238.302 42.0859 237.685 41.6444 236.99 41.6444H236.496V44.3458H236.99Z" fill="white"/>
<path d="M243.386 40.7157L244.321 40.4819L246.568 46.625L247.185 47.9887H245.588L244.958 46.2808H242.523L241.873 47.9887H240.549L243.38 40.7092L243.386 40.7157ZM242.88 45.1509H244.646L243.886 43.0145L243.789 42.5859L243.679 43.0275L242.886 45.1574L242.88 45.1509Z" fill="white"/>
<path d="M251.075 40.6313C252.718 40.6313 254.328 41.7353 254.328 44.2678C254.328 46.3978 252.926 47.9953 250.744 47.9953H248.25V41.7678L248.094 40.6313H251.068H251.075ZM249.685 46.9238H250.874C251.997 46.9238 252.815 45.8134 252.815 44.3328C252.815 42.8522 251.997 41.6963 250.874 41.6963H249.685V46.9238Z" fill="white"/>
<path d="M257.231 47.0472L257.354 47.9953H255.802V41.7678L255.647 40.6313H257.231V47.0472Z" fill="white"/>
<path d="M265.563 47.0473L265.64 47.9954H264.725L261.01 43.8199L260.582 43.1251V47.0473L260.705 47.9954H259.316V41.7679L259.16 40.6315H260.264L263.881 44.8849L264.296 45.5667V41.7614L264.14 40.625H265.563V47.0408V47.0473Z" fill="white"/>
<path d="M272.498 42.4693C271.881 41.8394 271.219 41.5862 270.569 41.5862C269.322 41.5862 268.387 42.8784 268.387 44.3525C268.387 46.0733 269.524 47.0539 270.667 47.0539C271.251 47.0539 271.803 46.911 271.803 46.911V45.359L271.602 44.4109H273.186L273.199 47.6513C273.199 47.6513 271.907 48.1384 270.465 48.1384C268.647 48.1384 266.894 46.9045 266.894 44.4694C266.894 42.0342 268.491 40.5017 270.55 40.5017C271.543 40.5017 272.368 40.7874 273.076 41.4173L272.491 42.4758L272.498 42.4693Z" fill="white"/>
<path d="M282.479 42.4693C281.862 41.8394 281.199 41.5862 280.55 41.5862C279.303 41.5862 278.368 42.8784 278.368 44.3525C278.368 46.0733 279.472 47.0084 280.66 47.0084C281.407 47.0084 282.245 46.6578 282.888 45.9759L283.154 47.1123C282.459 47.7552 281.388 48.1384 280.453 48.1384C278.634 48.1384 276.881 46.9045 276.881 44.4694C276.881 42.0342 278.479 40.5017 280.537 40.5017C281.531 40.5017 282.355 40.7874 283.063 41.4173L282.479 42.4758V42.4693Z" fill="white"/>
<path d="M290.602 44.2548C290.602 46.4562 289.057 48.1316 287.05 48.1316C284.888 48.1316 283.667 46.4887 283.667 44.3847C283.667 42.2807 285.187 40.5144 287.193 40.5144C289.466 40.5144 290.602 42.0664 290.602 44.2548ZM287.141 47.0666C288.31 47.0666 289.083 45.8977 289.083 44.3197C289.083 42.7418 288.31 41.5729 287.141 41.5729C285.972 41.5729 285.193 42.7418 285.193 44.3197C285.193 45.8977 285.972 47.0666 287.141 47.0666Z" fill="white"/>
<path d="M292.187 48.138C291.7 48.138 291.362 47.7744 291.362 47.3198C291.362 46.8977 291.7 46.4951 292.187 46.4951C292.674 46.4951 293.012 46.9042 293.012 47.3198C293.012 47.7744 292.667 48.138 292.187 48.138Z" fill="white"/>
<path d="M294.297 48.9176C294.706 48.5539 294.947 48.1643 294.947 47.8461C294.947 47.5279 294.836 47.437 294.629 47.3396V47.2617C294.629 46.9435 294.927 46.5149 295.369 46.5149C295.778 46.5149 296.155 46.7876 296.155 47.3656C296.155 47.8981 295.758 48.7552 294.745 49.4631L294.304 48.9241L294.297 48.9176Z" fill="white"/>
<path d="M300.642 41.7678L300.486 40.6313H302.077V46.8848H304.889L304.616 47.9953H300.648V41.7678H300.642Z" fill="white"/>
<path d="M304.239 40.6313H310.369V41.7418H307.986V47.0472L308.11 47.9953H306.558V41.7418H304.239V40.6313Z" fill="white"/>
<path d="M314.259 40.6313C315.902 40.6313 317.513 41.7353 317.513 44.2678C317.513 46.3978 316.11 47.9953 313.928 47.9953H311.434V41.7678L311.279 40.6313H314.253H314.259ZM312.869 46.9238H314.058C315.181 46.9238 315.999 45.8134 315.999 44.3328C315.999 42.8522 315.181 41.6963 314.058 41.6963H312.869V46.9238Z" fill="white"/>
<path d="M319.435 48.138C318.948 48.138 318.61 47.7744 318.61 47.3198C318.61 46.8977 318.954 46.4951 319.435 46.4951C319.915 46.4951 320.259 46.9042 320.259 47.3198C320.259 47.7744 319.915 48.138 319.435 48.138Z" fill="white"/>
<path d="M124.278 25.7219C124.278 26.722 124.012 27.5337 123.486 28.1701C122.966 28.787 122.252 29.0987 121.382 29.0987C120.512 29.0987 119.869 28.8065 119.356 28.2155C118.862 27.6116 118.609 26.8194 118.609 25.8323C118.609 24.8453 118.862 23.9751 119.375 23.3452C119.882 22.7153 120.609 22.3907 121.531 22.3907C123.246 22.3907 124.278 23.631 124.278 25.7349V25.7219ZM121.265 20.5075C121.265 20.9945 120.901 21.3906 120.434 21.3906C120.005 21.3906 119.616 21.0205 119.616 20.4945C119.616 20.0074 120.005 19.6113 120.434 19.6113C120.862 19.6113 121.265 19.9945 121.265 20.5075ZM122.843 25.7219C122.843 24.1634 122.388 23.3842 121.479 23.3842C120.512 23.3842 120.031 24.1634 120.031 25.7219C120.031 27.2804 120.499 28.0922 121.421 28.0922C122.343 28.0922 122.843 27.2999 122.843 25.7219ZM123.395 20.5075C123.395 20.9945 123.044 21.3906 122.577 21.3906C122.135 21.3906 121.745 21.0205 121.745 20.4945C121.745 20.0074 122.135 19.6113 122.577 19.6113C123.018 19.6113 123.395 19.9945 123.395 20.5075Z" fill="#27318B"/>
<path d="M130.824 26.1633V27.7543L131.025 29.092H125.707L126.057 27.7673H129.447L129.486 27.4556V25.9101C129.486 25.1893 129.35 24.6308 129.096 24.2022C128.856 23.8321 128.544 23.6438 128.161 23.6438C128.038 23.6438 127.895 23.6697 127.746 23.7477C127.746 23.5983 127.72 23.3191 127.681 22.9229C127.72 22.9229 127.869 22.91 128.096 22.8645C128.915 22.8645 129.57 23.1762 130.064 23.8061C130.557 24.423 130.811 25.2023 130.83 26.1633H130.824Z" fill="#27318B"/>
<path d="M137.486 28.4881C137.486 30.5336 136.525 31.8194 134.603 32.3584L134.324 31.7415C135.434 31.4168 136.038 30.5661 136.162 29.1634C135.694 29.3258 135.227 29.4167 134.727 29.4167C134.045 29.4167 133.493 29.105 133.064 28.5011C132.649 27.9426 132.447 27.2608 132.447 26.4555C132.447 25.423 132.7 24.5853 133.213 23.923C133.759 23.2152 134.486 22.8645 135.408 22.8645H137.486V28.4881ZM136.175 28.1634V23.7477H135.467C134.395 23.7477 133.765 24.6892 133.765 26.2218C133.765 27.7543 134.181 28.4167 135.012 28.4167C135.415 28.4167 135.804 28.3322 136.181 28.1699L136.175 28.1634Z" fill="#27318B"/>
<path d="M144.896 29.092H138.908L139.259 27.7673H142.649L142.688 27.4556V25.9101C142.688 25.1893 142.551 24.6308 142.298 24.2022C142.058 23.8321 141.746 23.6438 141.363 23.6438C141.24 23.6438 141.097 23.6697 140.947 23.7477C140.947 23.5983 140.922 23.3191 140.883 22.9229C140.922 22.9229 141.071 22.91 141.298 22.8645C142.116 22.8645 142.772 23.1762 143.266 23.8061C143.759 24.423 144.013 25.2023 144.032 26.1633V27.7673H144.902V29.092H144.896Z" fill="#27318B"/>
<path d="M152.948 29.0923H144.584V27.7676H150.37C150.045 26.9558 149.61 26.1181 149.032 25.2805C148.292 24.1765 147.643 23.631 147.091 23.631C146.688 23.631 146.487 23.9103 146.487 24.4557C146.487 24.722 146.552 25.0467 146.675 25.4428L145.279 25.6181C145.428 23.6895 146.337 22.5271 147.519 22.5271C148.428 22.5271 149.357 23.1765 150.279 24.4687C150.987 25.4818 151.552 26.5922 151.941 27.7676H152.948V29.0923Z" fill="#27318B"/>
<path d="M161.312 29.0922H160.351C159.851 29.0922 159.429 28.9428 159.078 28.6376C158.422 29.4883 157.63 29.9169 156.708 29.9169C155.961 29.9169 155.383 29.5467 154.993 28.8259C154.701 29.0013 154.364 29.0922 153.987 29.0922H152.591V27.7675H153.623C154.227 27.7675 154.532 27.4428 154.545 26.7934C154.61 24.6894 155.857 23.4102 157.896 23.4102C158.552 23.4102 159.195 23.527 159.838 23.7478L159.675 25.2804V26.6051C159.675 27.3843 159.994 27.7675 160.656 27.7675H161.312V29.0922ZM158.351 28.0467V25.3518L158.247 24.5271C158.046 24.4557 157.831 24.4232 157.604 24.4232C156.494 24.4232 155.929 25.1894 155.929 26.735C155.929 27.9688 156.409 28.7091 157.052 28.7091C157.533 28.7091 157.961 28.4883 158.351 28.0467Z" fill="#27318B"/>
<path d="M165.455 26.8973C165.455 28.2674 164.689 29.0921 163.461 29.0921H160.955V27.7674H163.137C163.792 27.7674 164.117 27.3713 164.117 26.5596V21.8776L163.89 19.936L165.455 19.5269V26.9038V26.8973Z" fill="#27318B"/>
<path d="M168.754 19.5789L168.604 21.54V29.0922H167.28V21.553L167.078 19.7282L168.754 19.5789Z" fill="#27318B"/>
<path d="M178.605 25.7219C178.605 26.722 178.338 27.5337 177.812 28.1701C177.293 28.787 176.579 29.0987 175.709 29.0987C174.838 29.0987 174.195 28.8065 173.682 28.2155C173.189 27.6116 172.936 26.8194 172.936 25.8323C172.936 24.8453 173.189 23.9751 173.702 23.3452C174.208 22.7153 174.936 22.3907 175.858 22.3907C177.572 22.3907 178.605 23.631 178.605 25.7349V25.7219ZM175.592 20.5075C175.592 20.9945 175.228 21.3906 174.76 21.3906C174.332 21.3906 173.942 21.0205 173.942 20.4945C173.942 20.0074 174.332 19.6113 174.76 19.6113C175.189 19.6113 175.592 19.9945 175.592 20.5075ZM177.17 25.7219C177.17 24.1634 176.715 23.3842 175.806 23.3842C174.838 23.3842 174.358 24.1634 174.358 25.7219C174.358 27.2804 174.825 28.0922 175.754 28.0922C176.683 28.0922 177.176 27.2999 177.176 25.7219H177.17ZM177.722 20.5075C177.722 20.9945 177.371 21.3906 176.903 21.3906C176.462 21.3906 176.072 21.0205 176.072 20.4945C176.072 20.0074 176.462 19.6113 176.903 19.6113C177.345 19.6113 177.722 19.9945 177.722 20.5075Z" fill="#27318B"/>
<path d="M182.3 28.4751C182.3 30.4622 181.332 31.7609 179.416 32.3454L179.137 31.7739C180.371 31.3453 180.988 30.4037 180.988 28.9297L180.975 25.2347L180.709 23.2606L182.306 22.8645V28.4751H182.3Z" fill="#27318B"/>
<path d="M187.183 29.0922H186.137C184.917 29.0922 184.157 28.2675 184.157 26.8973V21.8906L183.93 20.0074L185.495 19.6113V26.5596C185.495 27.3714 185.819 27.7675 186.462 27.7675H187.183V29.0922Z" fill="#27318B"/>
<path d="M195.17 29.0923H186.813V27.7676H192.599C192.274 26.9558 191.833 26.1181 191.261 25.2804C190.521 24.1765 189.865 23.631 189.319 23.631C188.917 23.631 188.716 23.9103 188.716 24.4557C188.716 24.722 188.78 25.0467 188.904 25.4428L187.514 25.6181C187.664 23.6895 188.573 22.5271 189.755 22.5271C190.664 22.5271 191.592 23.1765 192.514 24.4687C193.222 25.4818 193.787 26.5922 194.177 27.7676H195.183V29.0923H195.17ZM191.703 31.4625C191.703 31.9171 191.365 32.3456 190.897 32.3456C190.43 32.3456 190.066 31.9755 190.066 31.4495C190.066 30.9625 190.43 30.5664 190.897 30.5664C191.326 30.5664 191.703 30.9495 191.703 31.4625Z" fill="#27318B"/>
<path d="M200.008 29.0922H199.002C198.469 29.0922 198.021 28.9428 197.69 28.6506C197.326 28.9493 196.898 29.0922 196.404 29.0922H194.807V27.7675H196.04C196.696 27.7675 197.034 27.3843 197.034 26.6051V25.1765L196.755 23.2608L198.346 22.8647V26.6051C198.346 27.3843 198.664 27.7675 199.313 27.7675H200.008V29.0922ZM196.508 20.5075C196.508 20.9945 196.157 21.3906 195.69 21.3906C195.248 21.3906 194.885 21.0205 194.885 20.4945C194.885 20.0074 195.248 19.6113 195.69 19.6113C196.157 19.6113 196.508 19.9945 196.508 20.5075ZM198.651 20.5075C198.651 20.9945 198.3 21.3906 197.833 21.3906C197.391 21.3906 197.027 21.0205 197.027 20.4945C197.027 20.0074 197.391 19.6113 197.833 19.6113C198.3 19.6113 198.651 19.9945 198.651 20.5075Z" fill="#27318B"/>
<path d="M204.762 29.0922H203.865C203.326 29.0922 202.885 28.9428 202.541 28.6376C202.203 28.9493 201.774 29.0922 201.268 29.0922H199.631V27.7675H200.917C201.56 27.7675 201.885 27.3714 201.885 26.5596V21.9815L201.632 20.0074L203.229 19.6113V26.5596C203.229 27.3714 203.554 27.7675 204.197 27.7675H204.775V29.0922H204.762Z" fill="#27318B"/>
<path d="M208.892 26.8973C208.892 28.2674 208.125 29.0921 206.898 29.0921H204.391V27.7674H206.573C207.229 27.7674 207.554 27.3713 207.554 26.5596V21.8776L207.327 19.936L208.892 19.5269V26.9038V26.8973Z" fill="#27318B"/>
<path d="M220.71 29.0338C220.71 31.2416 219.548 32.3456 217.197 32.3326C214.535 32.3326 213.074 30.6507 213.074 27.6506V26.7804H214.372V27.6051C214.372 30.1117 215.353 31.3585 217.307 31.3585C218.632 31.3585 219.333 30.6247 219.385 29.1636C218.866 29.2935 218.366 29.3714 217.898 29.3714C216.489 29.3714 215.593 28.222 215.593 26.3518C215.593 25.2739 215.892 24.4102 216.463 23.7284C217.041 23.053 217.801 22.7153 218.743 22.7153H220.71V29.0338ZM218.23 20.5075C218.23 20.9945 217.866 21.3906 217.398 21.3906C216.97 21.3906 216.58 21.0205 216.58 20.4945C216.58 20.0074 216.97 19.6113 217.398 19.6113C217.827 19.6113 218.23 19.9945 218.23 20.5075ZM219.34 27.8973V23.7284H218.645C217.535 23.7284 216.983 24.5271 216.983 26.1116C216.983 27.4363 217.398 28.0987 218.23 28.0987C218.593 28.0987 218.957 28.0272 219.34 27.8909V27.8973ZM220.36 20.5075C220.36 20.9945 220.009 21.3906 219.541 21.3906C219.1 21.3906 218.71 21.0205 218.71 20.4945C218.71 20.0074 219.1 19.6113 219.541 19.6113C219.983 19.6113 220.36 19.9945 220.36 20.5075Z" fill="#27318B"/>
<path d="M226.145 29.092H225.074C224.834 29.092 224.606 29.066 224.405 28.9881C224.243 30.696 223.295 31.8129 221.535 32.3454L221.236 31.7739C222.483 31.3453 223.1 30.4037 223.1 28.9297L223.087 25.2347L222.821 23.2606L224.418 22.8645V26.5465C224.418 27.3582 224.743 27.7673 225.392 27.7673H226.145V29.092Z" fill="#27318B"/>
<path d="M237.561 29.0922H236.854C236.315 29.0922 235.88 28.9428 235.516 28.6506C235.178 28.9493 234.75 29.0922 234.243 29.0922C233.535 29.0922 232.944 28.8129 232.444 28.2545C232.081 28.8129 231.548 29.0922 230.821 29.0922C230.139 29.0922 229.535 28.7999 229.009 28.222C228.944 28.3259 228.847 28.4298 228.756 28.5337C228.392 28.9038 227.925 29.0922 227.321 29.0922H225.769V27.7674H227.003C227.646 27.7674 227.97 27.3843 227.97 26.6051L227.996 23.7608L229.308 23.4361V27.2804C229.639 27.6181 230.029 27.7804 230.477 27.7804C231.107 27.7804 231.425 27.3973 231.425 26.618V23.7608L232.75 23.4361V27.2349C233.087 27.6051 233.457 27.7804 233.905 27.7804C234.535 27.7804 234.854 27.3973 234.854 26.618V25.1764L234.6 23.2608L236.198 22.8647V26.618C236.198 27.3843 236.516 27.7674 237.159 27.7674H237.561V29.0922ZM231.691 20.5074C231.691 20.9945 231.34 21.3906 230.873 21.3906C230.431 21.3906 230.042 21.0204 230.042 20.4944C230.042 20.0074 230.431 19.6113 230.873 19.6113C231.314 19.6113 231.691 19.9944 231.691 20.5074ZM232.75 18.2281C232.75 18.7022 232.399 19.1113 231.931 19.1113C231.49 19.1113 231.126 18.7151 231.126 18.2281C231.126 17.7411 231.49 17.3125 231.931 17.3125C232.399 17.3125 232.75 17.7086 232.75 18.2281ZM233.834 20.5074C233.834 20.9945 233.47 21.3906 233.003 21.3906C232.574 21.3906 232.185 21.0204 232.185 20.4944C232.185 20.0074 232.574 19.6113 233.003 19.6113C233.431 19.6113 233.834 19.9944 233.834 20.5074Z" fill="#27318B"/>
<path d="M241.704 26.8973C241.704 28.2674 240.938 29.0921 239.704 29.0921H237.198V27.7674H239.38C240.036 27.7674 240.36 27.3713 240.36 26.5596V21.8776L240.133 19.936L241.698 19.5269V26.9038L241.704 26.8973Z" fill="#27318B"/>
<path d="M245.003 19.5789L244.854 21.54V29.0922H243.529V21.553L243.328 19.7282L245.003 19.5789Z" fill="#27318B"/>
<path d="M259.231 29.0921H257.679C257.426 29.0921 257.186 29.0661 256.958 28.9882C256.627 31.0467 255.166 32.3325 252.965 32.3325C251.692 32.3325 250.724 31.9039 250.068 31.0337C249.478 30.2415 249.185 29.1376 249.185 27.7024V25.0205H250.497V27.657C250.497 29.9558 251.478 31.3974 253.153 31.3974C253.848 31.3974 254.439 31.0857 254.919 30.4558C255.439 29.761 255.712 28.8778 255.712 27.7739V25.2283L255.458 23.2867L257.023 22.8711V26.2868C257.023 27.2739 257.348 27.7609 258.004 27.7609H259.238V29.0856L259.231 29.0921ZM253.874 25.0725C253.874 25.5595 253.523 25.9556 253.056 25.9556C252.614 25.9556 252.25 25.5855 252.25 25.0595C252.25 24.5725 252.614 24.1763 253.056 24.1763C253.523 24.1763 253.874 24.5595 253.874 25.0725Z" fill="#27318B"/>
<path d="M260.121 31.4622C260.121 31.9167 259.757 32.3453 259.29 32.3453C258.861 32.3453 258.471 31.9752 258.471 31.4492C258.471 30.9622 258.861 30.566 259.29 30.566C259.718 30.566 260.121 30.9492 260.121 31.4622ZM262.627 26.9555C262.627 28.2673 261.861 29.092 260.64 29.092H258.588V27.7672H260.316C260.971 27.7672 261.296 27.3841 261.296 26.6049V25.1438L261.069 23.2606L262.621 22.8774V26.9555H262.627ZM262.251 31.4622C262.251 31.9167 261.9 32.3453 261.432 32.3453C260.991 32.3453 260.601 31.9752 260.601 31.4492C260.601 30.9622 260.991 30.566 261.432 30.566C261.874 30.566 262.251 30.9492 262.251 31.4622Z" fill="#27318B"/>
<path d="M270.842 29.092H269.257C269.03 30.7869 268.076 31.8779 266.433 32.3454L266.153 31.774C267.309 31.2869 267.907 30.3908 267.978 29.092H266.705C265.985 29.092 265.394 28.8583 264.952 28.3712C264.459 27.8582 264.199 27.1634 264.199 26.2803C264.199 25.2023 264.478 24.3516 265.056 23.6892C265.634 23.0269 266.394 22.6892 267.335 22.6892H269.29V27.7673H270.848V29.092H270.842ZM267.933 27.7673V23.5399H267.251C266.192 23.5399 265.562 24.4815 265.562 26.014C265.562 27.1764 265.978 27.7673 266.809 27.7673H267.933Z" fill="#27318B"/>
<path d="M279.199 29.0922H278.238C277.738 29.0922 277.316 28.9428 276.966 28.6376C276.31 29.4883 275.517 29.9169 274.595 29.9169C273.842 29.9169 273.271 29.5467 272.881 28.8259C272.589 29.0013 272.251 29.0922 271.881 29.0922H270.485V27.7675H271.517C272.121 27.7675 272.426 27.4428 272.439 26.7934C272.504 24.6894 273.751 23.4102 275.79 23.4102C276.446 23.4102 277.089 23.527 277.732 23.7478L277.569 25.2804V26.6051C277.569 27.3843 277.894 27.7675 278.55 27.7675H279.206V29.0922H279.199ZM276.238 28.0467V25.3518L276.134 24.5271C275.933 24.4557 275.719 24.4232 275.491 24.4232C274.381 24.4232 273.816 25.1894 273.816 26.735C273.816 27.9688 274.297 28.7091 274.94 28.7091C275.42 28.7091 275.849 28.4883 276.238 28.0467Z" fill="#27318B"/>
<path d="M282.875 26.9558C282.875 28.2675 282.109 29.0922 280.894 29.0922H278.842V27.7675H280.57C281.225 27.7675 281.55 27.3843 281.55 26.6051V25.144L281.323 23.2608L282.875 22.8777V26.9558ZM280.881 20.5075C280.881 20.9945 280.544 21.3906 280.076 21.3906C279.609 21.3906 279.245 21.0205 279.245 20.4945C279.245 20.0074 279.609 19.6113 280.076 19.6113C280.505 19.6113 280.881 19.9945 280.881 20.5075ZM283.024 20.5075C283.024 20.9945 282.661 21.3906 282.219 21.3906C281.751 21.3906 281.388 21.0205 281.388 20.4945C281.388 20.0074 281.751 19.6113 282.219 19.6113C282.648 19.6113 283.024 19.9945 283.024 20.5075Z" fill="#27318B"/>
<path d="M292.791 29.0921C292.083 29.0921 291.518 28.8389 291.089 28.3389C290.622 28.6181 290.044 28.7545 289.362 28.7674C287.927 28.7674 287.057 27.6505 287.057 25.8842C287.057 24.9296 287.336 24.1634 287.914 23.5854C288.492 22.9945 289.252 22.7023 290.193 22.7023H290.622L290.544 22.0399C291.122 21.8776 291.654 21.7477 292.154 21.6438V26.579C292.154 27.3713 292.479 27.7739 293.135 27.7739H293.979V29.0986H292.797L292.791 29.0921ZM290.836 23.6569C290.583 23.6698 290.343 23.6893 290.115 23.6893C289.661 23.7023 289.258 23.8776 288.92 24.2478C288.589 24.6179 288.427 25.0725 288.427 25.618C288.44 26.8972 288.856 27.5466 289.674 27.5466C290.076 27.5466 290.466 27.4882 290.836 27.3713V23.6569Z" fill="#27318B"/>
<path d="M302.59 29.0922H293.596V27.7675H301.259V25.618C301.259 24.4816 300.505 23.9232 298.992 23.9232H294.278C295.901 22.2023 297.135 20.7542 297.992 19.6113H299.895L297.992 21.3322L296.797 22.6569H299.291C301.382 22.6569 302.59 23.6699 302.59 25.3648V29.0922Z" fill="#27318B"/>
<path d="M308.019 29.092H306.947C306.707 29.092 306.48 29.066 306.278 28.9881C306.122 30.696 305.168 31.8129 303.415 32.3454L303.122 31.7739C304.369 31.3453 304.986 30.4037 304.986 28.9297L304.973 25.2347L304.707 23.2606L306.304 22.8645V26.5465C306.304 27.3582 306.629 27.7673 307.278 27.7673H308.032V29.092H308.019Z" fill="#27318B"/>
<path d="M318.084 26.9557C318.084 28.2545 317.318 29.0922 316.142 29.0922C315.434 29.0922 314.831 28.8129 314.331 28.2545C313.967 28.8129 313.434 29.0922 312.707 29.0922C311.98 29.0922 311.408 28.7999 310.889 28.209C310.824 28.3259 310.727 28.4298 310.636 28.5337C310.272 28.9038 309.804 29.0922 309.2 29.0922H307.648V27.7674H308.882C309.525 27.7674 309.85 27.3843 309.85 26.6051L309.876 23.7608L311.188 23.4361V27.2674C311.525 27.6051 311.908 27.7804 312.382 27.7804C313.012 27.7804 313.331 27.3973 313.331 26.618V23.7608L314.642 23.4361V27.2349C314.973 27.6051 315.363 27.7804 315.792 27.7804C316.422 27.7804 316.746 27.3973 316.746 26.618V25.1764L316.506 23.2608L318.084 22.8647V26.9557ZM313.584 20.5074C313.584 20.9945 313.233 21.3906 312.766 21.3906C312.324 21.3906 311.934 21.0204 311.934 20.4944C311.934 20.0074 312.324 19.6113 312.766 19.6113C313.207 19.6113 313.584 19.9944 313.584 20.5074ZM314.642 18.2281C314.642 18.7022 314.292 19.1113 313.824 19.1113C313.382 19.1113 313.019 18.7151 313.019 18.2281C313.019 17.7411 313.376 17.3125 313.824 17.3125C314.292 17.3125 314.642 17.7086 314.642 18.2281ZM315.727 20.5074C315.727 20.9945 315.363 21.3906 314.896 21.3906C314.467 21.3906 314.077 21.0204 314.077 20.4944C314.077 20.0074 314.467 19.6113 314.896 19.6113C315.324 19.6113 315.727 19.9944 315.727 20.5074Z" fill="#27318B"/>
</svg>
