<svg width="69" height="69" viewBox="0 0 69 69" fill="none" xmlns="http://www.w3.org/2000/svg">
<g filter="url(#filter0_i_629_66189)">
<path d="M1.17551 0.261719C0.541693 0.319959 0.0994359 0.807848 0.100001 1.39034V4.79383H11.4238V1.39034C11.4213 0.768065 10.9174 0.264203 10.2952 0.261719H1.17551ZM39.7521 0.261719C39.1298 0.264203 38.6259 0.768065 38.6234 1.39034V4.79383H49.9494V1.39034C49.9472 0.768065 49.4431 0.264203 48.8208 0.261719H39.7521ZM38.6234 7.06217V17.2574C38.6234 17.9047 38.1333 18.386 37.486 18.386H32.9538C32.3065 18.386 31.8252 17.9047 31.8252 17.2574C31.8252 15.3938 30.2829 13.8515 28.4194 13.8515H21.6278C19.7643 13.8515 18.2243 15.3938 18.2243 17.2574C18.2243 17.9047 17.743 18.386 17.0956 18.386H12.5613C11.9139 18.386 11.4238 17.9047 11.4238 17.2574V7.06217H0.100001V64.8384C0.0994788 64.8598 0.0994788 64.877 0.100001 64.898C0.18552 66.6939 1.63033 68.244 3.4947 68.244H13.9045C13.8129 67.9905 13.7398 67.727 13.712 67.4495L11.7734 48.0683C11.7563 47.8846 11.7614 47.6995 11.7889 47.5172C10.3488 47.128 9.16329 46.0054 9.15763 44.4568C9.15761 44.4534 9.15761 44.4525 9.15763 44.4482V39.9161C9.15649 38.1882 10.4917 36.5247 12.3908 36.5236L21.6299 36.5192V33.1157C21.6301 32.2249 21.9812 31.3673 22.6059 30.7323L22.6191 30.7195L26.0006 27.3358C26.6156 26.7028 27.453 26.333 28.3353 26.3068C29.7834 26.264 31.0772 27.2141 31.5707 28.3892C32.0642 29.5643 31.8384 31.1518 30.7939 32.1557L28.4283 34.5213V36.5196H37.4771C37.8793 36.5185 38.262 36.6023 38.6234 36.7342C38.6234 34.2512 38.681 31.9852 38.681 30.6618C39.1111 25.4425 42.1441 21.0465 46.4131 18.4904C45.8031 17.8707 45.4117 17.0317 45.4151 16.1115V12.7238C45.4151 10 47.3813 7.64704 49.9516 7.05864L38.6234 7.06217ZM51.0869 9.32829C49.2234 9.32829 47.6811 10.8594 47.6811 12.7229V16.1199C47.6789 16.7499 48.1908 17.261 48.8208 17.2574H60.1535C60.7792 17.2551 61.2845 16.7456 61.2821 16.1199V12.7229C61.2821 10.8594 59.7509 9.32829 57.8874 9.32829H51.0869ZM48.8208 19.6296C44.4624 21.6242 41.3525 25.8469 40.9404 30.8471H68.0294C67.6151 25.8506 64.5059 21.6266 60.1512 19.6318C56.7698 19.6318 52.2004 19.6296 48.8208 19.6296ZM28.4039 28.5723C28.1096 28.5808 27.8302 28.7042 27.625 28.9153L24.2214 32.321C24.013 32.533 23.8962 32.8182 23.8961 33.1155V36.519H26.1622V33.5824L29.2227 30.5219C29.9702 29.8034 29.4402 28.5416 28.4039 28.5723ZM40.8895 33.1155L40.8873 51.2486H68.0803V33.1155H40.8895ZM46.537 35.3638C47.1758 35.3553 47.6936 35.8803 47.6811 36.519V37.6476C47.7154 39.1922 45.3808 39.1922 45.4151 37.6476V36.519C45.4026 35.8889 45.9069 35.3699 46.537 35.3638ZM12.5015 38.7851C11.8606 38.7851 11.4232 39.3312 11.4238 39.9137V44.4482C11.4261 45.0739 11.9355 45.5791 12.5613 45.5768H37.486C38.1117 45.579 38.6209 45.0739 38.6234 44.4482V39.9137C38.6212 39.288 38.1117 38.7827 37.486 38.7851H12.5015ZM46.537 40.467C47.1723 40.4628 47.6885 40.9781 47.6811 41.6133V47.8428C47.7154 49.3874 45.3808 49.3874 45.4151 47.8428V41.6133C45.4082 40.9867 45.9104 40.4732 46.537 40.467ZM38.6212 47.3936C38.5022 47.4377 38.3838 47.484 38.2605 47.5174C38.2879 47.6998 38.2931 47.8848 38.2759 48.0683L36.3374 67.4495C36.3096 67.7271 36.2365 67.9903 36.1449 68.244H40.3893C39.2966 67.0375 38.6211 65.4482 38.6211 63.7074L38.6212 47.3936ZM14.0285 47.8428L15.967 67.224C16.0251 67.8036 16.5131 68.2448 17.0956 68.2443H32.9538C33.5363 68.2448 34.0243 67.8036 34.0824 67.224L36.021 47.8428H14.0285ZM40.8873 53.5146V63.7076C40.8873 66.1988 42.9327 68.2354 45.4239 68.2354L46.5547 68.2397C47.911 68.2397 49.1179 67.6205 49.9494 66.6662C50.7832 67.6194 51.9958 68.2352 53.353 68.2352L55.6147 68.2437C56.9713 68.2437 58.1825 67.624 59.016 66.6682C59.8478 67.6223 61.0558 68.2416 62.4129 68.2415L63.5526 68.2393C66.0438 68.2393 68.0804 66.1961 68.0803 63.7048V53.5164L40.8873 53.5146Z" fill="#DCD2C6"/>
</g>
<defs>
<filter id="filter0_i_629_66189" x="0.0996094" y="0.261719" width="67.9807" height="71.9825" filterUnits="userSpaceOnUse" color-interpolation-filters="sRGB">
<feFlood flood-opacity="0" result="BackgroundImageFix"/>
<feBlend mode="normal" in="SourceGraphic" in2="BackgroundImageFix" result="shape"/>
<feColorMatrix in="SourceAlpha" type="matrix" values="0 0 0 0 0 0 0 0 0 0 0 0 0 0 0 0 0 0 127 0" result="hardAlpha"/>
<feOffset dy="4"/>
<feGaussianBlur stdDeviation="2"/>
<feComposite in2="hardAlpha" operator="arithmetic" k2="-1" k3="1"/>
<feColorMatrix type="matrix" values="0 0 0 0 0 0 0 0 0 0 0 0 0 0 0 0 0 0 0.25 0"/>
<feBlend mode="normal" in2="shape" result="effect1_innerShadow_629_66189"/>
</filter>
</defs>
</svg>
